<svg width="574" height="560" viewBox="0 0 574 560" fill="none" xmlns="http://www.w3.org/2000/svg">
<g clip-path="url(#clip0_6_160)">
<path d="M540.024 154.562C534.651 144.83 528.689 135.438 522.172 126.438C517.605 120.124 512.78 114.02 507.696 108.127H507.683C498.484 97.4593 488.48 87.5189 477.759 78.3943C475.565 76.5236 473.341 74.6913 471.087 72.8973C450.745 56.652 428.187 43.42 404.102 33.6057L404.315 68.9365L406.62 471.687H206.863L195.629 69.6964L196.465 34.9299C98.5307 76.2774 29.766 173.493 29.766 286.837C29.7477 310.232 32.721 333.532 38.6129 356.167C41.1015 365.735 44.1144 375.158 47.6379 384.393C48.9099 387.745 50.2519 391.067 51.6638 394.359C52.3443 395.962 53.0376 397.552 53.7563 399.135C54.6785 401.204 55.6389 403.266 56.6247 405.302C57.3879 406.905 58.1723 408.497 58.9779 410.078C60.0146 412.153 61.0852 414.211 62.1898 416.252C63.042 417.854 63.9197 419.444 64.8102 421.027C79.1754 446.535 97.5194 469.566 119.145 489.246C125.307 494.858 131.721 500.179 138.384 505.208C185.531 540.771 242.909 560 301.883 560C360.857 560 418.235 540.771 465.382 505.208C469.007 502.475 472.558 499.651 476.035 496.735C478.344 494.807 480.615 492.843 482.847 490.843C483.439 490.313 484.03 489.783 484.615 489.246C504.552 471.103 521.711 450.104 535.534 426.927C540.611 418.43 545.214 409.657 549.323 400.648C550.41 398.273 551.464 395.877 552.484 393.459C557.177 382.375 561.125 370.987 564.301 359.372C564.791 357.578 565.263 355.777 565.719 353.971V353.964C565.795 353.651 565.878 353.332 565.954 353.019C566.425 351.117 566.877 349.201 567.309 347.286V347.28C568.708 341.106 569.889 334.857 570.852 328.535C570.973 327.724 571.093 326.913 571.208 326.102C571.252 325.808 571.297 325.515 571.329 325.221V325.215C572.016 320.33 572.573 315.41 573.001 310.454C573.663 302.671 573.996 294.799 574 286.837C574.072 240.562 562.378 195.033 540.024 154.562Z" fill="#F8F9FA"/>
<path d="M513.301 451.73C529.407 429.884 535.601 399.112 523.073 375.019C511.323 402.119 490.402 424.174 464.013 437.281C453.817 442.298 441.957 446.814 437.238 457.181C434.301 463.632 434.861 471.249 437.221 477.934C439.582 484.619 443.597 490.567 447.569 496.432L447.779 498.19C472.789 487.781 497.194 473.577 513.301 451.73Z" fill="#DEE2E6"/>
<path d="M522.538 375.212C521.816 397.697 514.056 419.381 500.358 437.186C497.477 441.071 494.004 444.477 490.067 447.277C486.143 449.88 481.597 451.38 476.901 451.623C472.526 451.938 468.015 451.751 463.793 453.128C461.642 453.865 459.671 455.05 458.008 456.605C456.346 458.16 455.03 460.051 454.146 462.153C451.808 467.332 451.464 473.046 451.321 478.646C451.162 484.863 451.095 491.323 448.174 496.975C447.82 497.659 448.899 498.171 449.252 497.487C454.335 487.654 451.035 476.155 454.064 465.819C455.477 460.995 458.347 456.571 463.144 454.638C467.338 452.947 471.99 453.136 476.422 452.856C481.007 452.686 485.481 451.393 489.453 449.087C493.52 446.498 497.118 443.232 500.093 439.431C506.927 430.98 512.396 421.503 516.297 411.347C520.814 399.781 523.327 387.525 523.727 375.108C523.752 374.34 522.562 374.449 522.538 375.212Z" fill="#F8F9FA"/>
<path d="M505.105 431.713C508.393 433.615 512.247 434.281 515.979 433.594C519.711 432.906 523.078 430.909 525.478 427.959C525.962 427.361 525.058 426.578 524.574 427.177C522.343 429.928 519.207 431.788 515.73 432.421C512.254 433.055 508.666 432.42 505.615 430.631C504.952 430.243 504.445 431.328 505.105 431.713Z" fill="#F8F9FA"/>
<path d="M479.14 451.757C477.058 444.256 477.87 436.243 481.412 429.317C481.764 428.631 480.685 428.119 480.334 428.804C476.661 436.019 475.833 444.36 478.016 452.16C478.225 452.904 479.347 452.496 479.14 451.757Z" fill="#F8F9FA"/>
<path d="M519.233 399.837C517.808 399.367 516.522 398.55 515.49 397.458C514.457 396.366 513.711 395.033 513.319 393.58C513.12 392.835 511.997 393.243 512.195 393.984C512.636 395.587 513.462 397.057 514.6 398.266C515.738 399.475 517.153 400.386 518.723 400.92C518.867 400.982 519.029 400.988 519.176 400.935C519.324 400.882 519.446 400.774 519.517 400.634C519.584 400.491 519.592 400.326 519.539 400.177C519.485 400.028 519.376 399.905 519.233 399.837Z" fill="#F8F9FA"/>
<path d="M433.416 355.845C433.527 356.314 433.638 356.783 433.743 357.26C435.204 363.575 436.152 369.999 436.577 376.469C436.618 376.968 436.652 377.475 436.678 377.975C437.537 393.572 435.503 409.193 430.681 424.045C428.757 429.953 426.388 435.706 423.594 441.253C419.735 448.914 414.944 456.912 413.864 465.162C413.742 466.022 413.672 466.888 413.657 467.756L445.626 498.31C445.733 498.343 445.834 498.383 445.942 498.417L447.163 499.695C447.327 499.419 447.491 499.129 447.655 498.853C447.751 498.694 447.839 498.527 447.935 498.367C447.997 498.259 448.058 498.15 448.12 498.055C448.14 498.019 448.161 497.983 448.174 497.954C448.236 497.859 448.284 497.765 448.338 497.678C449.261 496.061 450.173 494.434 451.076 492.798C451.083 492.791 451.083 492.791 451.082 492.777C457.929 480.294 463.797 467.128 467.489 453.486C467.599 453.076 467.718 452.658 467.814 452.234C469.444 446.076 470.57 439.794 471.18 433.452C471.503 429.978 471.651 426.489 471.622 423C471.532 413.986 470.03 405.041 467.17 396.495C461.468 379.459 450.402 364.444 434.627 356.444C434.223 356.24 433.826 356.042 433.416 355.845Z" fill="#DEE2E6"/>
<path d="M433.101 356.321C446.01 374.71 452.82 396.714 452.561 419.209C452.591 424.053 451.861 428.871 450.396 433.486C448.825 437.935 446.095 441.881 442.491 444.913C439.187 447.809 435.473 450.386 432.928 454.037C431.652 455.925 430.789 458.063 430.394 460.309C430 462.556 430.083 464.861 430.638 467.073C431.878 472.622 435.03 477.392 438.274 481.949C441.876 487.01 445.697 492.208 446.754 498.486C446.882 499.247 448.051 499.003 447.923 498.243C446.083 487.321 436.552 480.134 432.771 470.05C431.006 465.345 430.644 460.077 433.315 455.635C435.65 451.75 439.477 449.089 442.848 446.187C446.407 443.281 449.204 439.544 450.992 435.302C452.686 430.777 453.601 425.995 453.696 421.162C454.085 410.284 452.767 399.412 449.791 388.945C446.461 376.98 441.116 365.675 433.988 355.519C433.547 354.891 432.663 355.697 433.101 356.321Z" fill="#F8F9FA"/>
<path d="M453.069 411.971C456.835 411.502 460.312 409.705 462.879 406.9C465.446 404.095 466.937 400.466 467.085 396.66C467.112 395.889 465.921 395.811 465.894 396.582C465.763 400.126 464.374 403.507 461.978 406.114C459.582 408.721 456.336 410.382 452.827 410.798C452.065 410.889 452.311 412.061 453.069 411.971Z" fill="#F8F9FA"/>
<path d="M444.359 443.667C438.198 438.936 434.04 432.048 432.714 424.376C432.584 423.616 431.415 423.86 431.546 424.619C432.941 432.6 437.282 439.759 443.704 444.668C444.316 445.136 444.968 444.132 444.359 443.667Z" fill="#F8F9FA"/>
<path d="M445.231 377.98C443.812 378.466 442.295 378.591 440.816 378.343C439.336 378.095 437.942 377.482 436.757 376.559C436.151 376.084 435.499 377.088 436.102 377.56C437.416 378.574 438.957 379.249 440.59 379.526C442.224 379.804 443.9 379.676 445.473 379.153C445.626 379.116 445.758 379.023 445.844 378.891C445.931 378.76 445.963 378.6 445.937 378.445C445.904 378.29 445.811 378.154 445.679 378.067C445.547 377.98 445.386 377.949 445.231 377.98Z" fill="#F8F9FA"/>
<path d="M12.7035 329.375C-1.58101 306.287 -5.26364 275.111 9.17421 252.12C18.6915 280.089 37.7572 303.777 62.9981 318.994C72.7536 324.827 84.2092 330.295 88.0734 341.013C90.478 347.682 89.304 355.228 86.4101 361.698C83.5159 368.169 79.0327 373.769 74.5984 379.291L74.2475 381.026C50.1629 368.611 26.988 352.463 12.7035 329.375Z" fill="#DEE2E6"/>
<path d="M9.69121 252.356C8.59023 274.825 14.5699 297.071 26.7808 315.934C29.3377 320.042 32.5236 323.719 36.2213 326.831C39.9209 329.746 44.3304 331.612 48.9917 332.238C53.3263 332.908 57.8374 333.09 61.9341 334.807C64.0182 335.717 65.887 337.058 67.4182 338.744C68.9494 340.43 70.1083 342.422 70.8188 344.589C72.7294 349.942 72.6099 355.665 72.2992 361.258C71.9543 367.467 71.4981 373.911 73.9522 379.782C74.2495 380.494 73.1325 380.915 72.8356 380.205C68.5659 369.99 72.7861 358.799 70.6041 348.249C69.5859 343.327 67.0838 338.682 62.4593 336.364C58.4155 334.338 53.7637 334.146 49.369 333.505C44.8128 332.962 40.4584 331.308 36.6861 328.686C32.8425 325.773 29.5208 322.225 26.863 318.194C20.7355 309.213 16.0526 299.322 12.986 288.881C9.42021 276.985 7.90797 264.564 8.51466 252.155C8.55252 251.387 9.72884 251.593 9.69121 252.356Z" fill="#F8F9FA"/>
<path d="M22.4928 310.093C19.062 311.72 15.1667 312.07 11.5027 311.08C7.8387 310.09 4.64452 307.825 2.49061 304.689C2.05696 304.053 3.02111 303.347 3.45533 303.983C5.45569 306.907 8.43129 309.017 11.8451 309.932C15.2589 310.846 18.886 310.506 22.0718 308.972C22.7645 308.64 23.1815 309.762 22.4928 310.093Z" fill="#F8F9FA"/>
<path d="M46.7493 332.188C49.431 324.882 49.2709 316.83 46.301 309.637C46.0062 308.924 47.1231 308.502 47.4176 309.214C50.4942 316.705 50.6438 325.085 47.8365 332.682C47.5685 333.406 46.4827 332.908 46.7493 332.188Z" fill="#F8F9FA"/>
<path d="M10.9917 277.169C12.4499 276.817 13.7981 276.107 14.9154 275.103C16.0327 274.099 16.8841 272.832 17.393 271.416C17.6518 270.689 18.7373 271.187 18.4802 271.91C17.9107 273.472 16.9688 274.87 15.7368 275.982C14.5048 277.094 13.0202 277.886 11.4128 278.29C11.2644 278.341 11.1024 278.333 10.9596 278.268C10.8168 278.203 10.7039 278.086 10.644 277.941C10.589 277.792 10.5946 277.628 10.6598 277.483C10.7249 277.339 10.8442 277.226 10.9917 277.169Z" fill="#F8F9FA"/>
<path d="M100.087 240.324C99.938 240.782 99.7893 241.241 99.6465 241.708C97.6786 247.883 96.2137 254.208 95.2663 260.621C95.1852 261.116 95.1105 261.619 95.0437 262.115C92.9253 277.59 93.6873 293.325 97.2911 308.522C98.7307 314.567 100.626 320.494 102.962 326.251C106.187 334.201 110.315 342.563 110.724 350.874C110.776 351.741 110.775 352.61 110.72 353.476L76.3835 381.322C76.2738 381.345 76.1701 381.378 76.06 381.402L74.7397 382.577C74.5986 382.288 74.4584 381.986 74.3173 381.697C74.2348 381.53 74.1599 381.357 74.0773 381.19C74.0247 381.077 73.9724 380.963 73.9185 380.864C73.9009 380.826 73.8836 380.789 73.8722 380.759C73.8183 380.659 73.7787 380.562 73.7311 380.47C72.943 378.783 72.1653 377.087 71.398 375.383C71.3917 375.375 71.3917 375.375 71.393 375.361C65.5798 362.361 60.7966 348.76 58.222 334.862C58.1447 334.444 58.0606 334.019 57.999 333.588C56.8731 327.317 56.2597 320.964 56.1648 314.593C56.1241 311.104 56.2593 307.615 56.5699 304.14C57.3898 295.163 59.6113 286.37 63.1529 278.086C70.2155 261.571 82.4609 247.508 98.8311 240.822C99.2499 240.652 99.6615 240.487 100.087 240.324Z" fill="#DEE2E6"/>
<path d="M100.362 240.824C86.0065 258.099 77.4385 279.475 75.8747 301.916C75.4527 306.741 75.7909 311.603 76.8769 316.322C78.0829 320.885 80.484 325.041 83.8309 328.357C86.8897 331.512 90.3824 334.384 92.6239 338.231C93.7421 340.217 94.4295 342.418 94.641 344.689C94.8524 346.961 94.5832 349.251 93.8509 351.411C92.1657 356.84 88.6378 361.337 85.0355 365.615C81.0359 370.364 76.8066 375.234 75.2447 381.405C75.0555 382.153 73.9108 381.814 74.0997 381.068C76.8172 370.331 86.8989 363.946 91.4839 354.204C93.6234 349.658 94.4111 344.438 92.1089 339.792C90.0957 335.73 86.4964 332.765 83.3719 329.597C80.0597 326.41 77.5752 322.457 76.1356 318.084C74.8137 313.436 74.2895 308.595 74.5854 303.77C75.079 292.896 77.2726 282.168 81.086 271.978C85.3739 260.325 91.6162 249.493 99.5426 239.953C100.033 239.362 100.849 240.238 100.362 240.824Z" fill="#F8F9FA"/>
<path d="M75.9546 294.66C72.2394 293.886 68.9195 291.811 66.5878 288.806C64.256 285.801 63.0641 282.062 63.2251 278.257C63.233 278.102 63.3007 277.956 63.4138 277.85C63.5269 277.744 63.6766 277.686 63.8313 277.688C63.986 277.691 64.1337 277.754 64.2432 277.863C64.3528 277.973 64.4156 278.121 64.4185 278.276C64.2621 281.82 65.3726 285.303 67.5497 288.096C69.7267 290.89 72.8269 292.811 76.2906 293.511C77.0432 293.664 76.7028 294.813 75.9546 294.66Z" fill="#F8F9FA"/>
<path d="M82.0701 326.963C88.5932 322.75 93.2949 316.224 95.2377 308.686C95.4296 307.939 96.5743 308.277 96.3827 309.023C94.3464 316.863 89.4398 323.645 82.6421 328.014C81.9939 328.43 81.4254 327.376 82.0701 326.963Z" fill="#F8F9FA"/>
<path d="M86.5181 261.422C87.8934 262.022 89.3956 262.27 90.89 262.143C92.3844 262.017 93.824 261.52 95.0797 260.697C95.7224 260.273 96.2902 261.327 95.6517 261.748C94.2602 262.651 92.6695 263.198 91.0188 263.341C89.3681 263.485 87.7075 263.22 86.1821 262.571C86.0332 262.522 85.9085 262.418 85.8334 262.28C85.7582 262.141 85.7383 261.98 85.7776 261.828C85.8229 261.676 85.926 261.548 86.0647 261.472C86.2034 261.396 86.3663 261.378 86.5181 261.422Z" fill="#F8F9FA"/>
<path d="M277.869 93.6992C298.748 93.6992 315.675 76.7079 315.675 55.7482C315.675 34.7885 298.748 17.7973 277.869 17.7973C256.989 17.7973 240.063 34.7885 240.063 55.7482C240.063 76.7079 256.989 93.6992 277.869 93.6992Z" fill="#9F96A6"/>
<path d="M393.622 53.7678C390.215 50.1552 386.619 46.7282 382.848 43.5014C375.483 37.2318 367.329 31.9007 358.24 28.5424C354.819 27.2739 351.283 26.3396 347.683 25.7524C347.25 25.6822 346.824 25.6119 346.391 25.5544C346.36 25.5512 346.328 25.5512 346.296 25.5544C346.229 25.5355 346.161 25.5227 346.093 25.5161C345.208 25.4012 344.324 25.3118 343.434 25.248C338.639 24.928 333.823 25.3631 329.162 26.5377C326.457 27.2226 323.818 28.1456 321.275 29.2958C318.728 30.5478 316.258 31.9528 313.879 33.5032C312.601 34.2823 311.285 34.9961 309.935 35.642C305.995 37.5159 301.825 38.8557 297.533 39.626C294.635 40.1479 291.7 40.4383 288.756 40.4943C286.199 40.5454 283.789 40.6347 281.366 41.5605C278.78 42.5359 276.457 44.1052 274.583 46.1428C272.709 48.1804 271.335 50.6298 270.573 53.2953C270.512 53.532 270.529 53.7818 270.621 54.0082C270.713 54.2345 270.874 54.4254 271.081 54.553C271.737 55.0255 272.373 55.5618 273.066 55.9832C273.678 56.2635 274.33 56.4424 274.999 56.5131C276.093 56.743 277.189 56.9664 278.287 57.1835C282.326 57.9879 286.382 58.7009 290.454 59.3223C298.646 60.5673 306.885 61.4441 315.17 61.9528C315.22 61.9602 315.271 61.9645 315.322 61.9655C324.682 62.5326 334.065 62.6243 343.434 62.2401C344.852 62.1826 346.264 62.1124 347.683 62.0294C353.591 61.6974 359.485 61.1738 365.364 60.4588C370.801 59.7948 376.218 58.9712 381.614 57.9879C385.468 57.2857 389.307 56.5025 393.132 55.6384C393.318 55.5833 393.486 55.4809 393.621 55.3414C393.756 55.2018 393.852 55.0296 393.902 54.8416C393.951 54.6535 393.951 54.4559 393.902 54.2678C393.853 54.0797 393.756 53.9075 393.622 53.7678Z" fill="#DEE2E6"/>
<path d="M315.043 104.372C309.569 98.4943 303.539 93.1657 297.037 88.4614C294.881 86.9419 292.661 85.5118 290.378 84.2029C287.579 82.5808 284.672 81.1537 281.677 79.9316C281.01 79.6571 280.335 79.3954 279.661 79.1464C275.831 77.7223 271.858 76.7204 267.812 76.1584C267.781 76.152 267.749 76.1584 267.717 76.152C267.653 76.1393 267.583 76.1265 267.52 76.1137C265.559 75.8584 263.583 75.7368 261.605 75.7498C260.187 75.7498 258.762 75.8264 257.35 75.9669C255.069 76.1925 252.807 76.5851 250.583 77.1416C249.483 77.4162 248.389 77.7354 247.314 78.0993C245.746 78.6172 244.207 79.2182 242.703 79.8997C242.677 79.9125 242.658 79.9189 242.633 79.9316C240.108 81.1717 237.661 82.5662 235.306 84.1072C235.255 84.1391 235.198 84.171 235.147 84.2029C232.472 85.8092 229.642 87.1397 226.701 88.1741C224.176 89.0605 221.586 89.7479 218.954 90.2299C216.056 90.7532 213.121 91.0415 210.177 91.0919C207.62 91.143 205.21 91.2323 202.793 92.1645C200.206 93.1397 197.882 94.7088 196.007 96.7463C194.132 98.7839 192.758 101.233 191.994 103.899C191.935 104.136 191.952 104.385 192.044 104.611C192.135 104.838 192.296 105.029 192.502 105.157C193.158 105.629 193.8 106.159 194.487 106.581C195.098 106.863 195.751 107.042 196.42 107.111C197.514 107.341 198.608 107.57 199.708 107.787C203.747 108.592 207.805 109.303 211.882 109.92C217.472 110.769 223.086 111.448 228.723 111.957C231.394 112.206 234.068 112.41 236.743 112.569C243.606 112.984 250.475 113.146 257.35 113.055C258.768 113.036 260.187 113.004 261.605 112.959C270.026 112.71 278.421 112.076 286.791 111.056C296.12 109.923 305.386 108.314 314.553 106.236C314.738 106.181 314.906 106.08 315.041 105.941C315.176 105.802 315.273 105.63 315.322 105.443C315.371 105.255 315.371 105.058 315.322 104.87C315.273 104.683 315.177 104.511 315.043 104.372Z" fill="#DEE2E6"/>
<path d="M220.809 2.51965L254.115 464.543L187.503 470.478V8.39789C195.44 2.17394 206.834 1.20019 220.809 2.51965Z" fill="#ADB5BD"/>
<path d="M385.212 2.51965L351.906 464.543L418.518 470.478V8.39789C410.581 2.17394 399.187 1.20019 385.212 2.51965Z" fill="#ADB5BD"/>
<path d="M420.085 8.59953C418.018 3.51215 413.624 -1.52588e-05 408.542 -1.52588e-05H196.77C189.704 -1.52588e-05 183.96 6.80575 183.96 15.1792V474.393C183.899 478.641 185.481 482.748 188.374 485.849C189.888 487.445 191.805 488.599 193.92 489.188C194.848 489.445 195.807 489.575 196.77 489.572H408.542C409.505 489.575 410.463 489.445 411.391 489.188C417.09 487.65 421.351 481.606 421.351 474.393V15.1792C421.357 12.9245 420.927 10.69 420.085 8.59953ZM417.103 474.393C417.103 479.985 413.261 484.537 408.542 484.537H196.77C192.858 484.537 189.545 481.41 188.533 477.151C188.317 476.248 188.208 475.322 188.209 474.393V15.1792C188.209 9.58687 192.05 5.04217 196.77 5.04217H408.542C409.41 5.04148 410.272 5.19719 411.086 5.50191C414.565 6.78319 417.103 10.6345 417.103 15.1792V474.393Z" fill="#ADB5BD"/>
<path d="M419.227 139.585H186.086V143.853H419.227V139.585Z" fill="#ADB5BD"/>
<path d="M419.227 51.4782H186.086V55.7464H419.227V51.4782Z" fill="#ADB5BD"/>
<path d="M419.227 210.721H186.086V214.989H419.227V210.721Z" fill="#ADB5BD"/>
<path d="M261.742 1.91536H257.49V271.186H261.742V1.91536Z" fill="#ADB5BD"/>
<path d="M347.822 1.91536H343.57V271.186H347.822V1.91536Z" fill="#ADB5BD"/>
<path d="M445.799 462.897H166.597C161.525 462.903 156.663 464.929 153.076 468.529C149.49 472.129 147.472 477.011 147.466 482.102C147.464 484.551 147.932 486.976 148.846 489.246C150.267 492.807 152.716 495.859 155.88 498.01C159.044 500.161 162.776 501.311 166.597 501.313H445.799C449.139 501.312 452.421 500.433 455.317 498.764C458.214 497.096 460.625 494.695 462.31 491.8C462.79 490.982 463.207 490.128 463.557 489.246C464.471 486.976 464.939 484.551 464.937 482.102C464.93 477.01 462.911 472.128 459.323 468.528C455.736 464.928 450.872 462.903 445.799 462.897Z" fill="#ADB5BD"/>
<path d="M419.227 261.227H187.503V275.455H419.227V261.227Z" fill="#ADB5BD"/>
<path d="M301.239 256.959H305.491C307.558 256.959 309.541 257.784 311.003 259.251C312.465 260.719 313.286 262.709 313.286 264.784H293.444C293.444 263.757 293.646 262.739 294.037 261.79C294.429 260.84 295.003 259.978 295.727 259.251C296.451 258.525 297.31 257.948 298.256 257.555C299.202 257.162 300.215 256.959 301.239 256.959Z" fill="#ADB5BD"/>
<path d="M307.453 301.352C331.706 301.352 351.368 281.615 351.368 257.268C351.368 232.921 331.706 213.184 307.453 213.184C283.199 213.184 263.538 232.921 263.538 257.268C263.538 281.615 283.199 301.352 307.453 301.352Z" fill="#F1D7BB"/>
<path d="M258.464 214.859C258.796 209.796 262.131 204.616 272.727 201.909C272.727 201.909 290.911 178.566 315.622 190.808C315.622 190.808 327.602 188.739 336.485 201.216C336.485 201.216 345.292 196.001 349.008 205.244C349.008 205.244 359.337 224.096 355.534 243.325C351.731 262.554 349.785 264.954 349.785 264.954C349.785 264.954 354.632 225.179 326.713 227.937C298.795 230.695 276.318 220.839 269.995 242.418C264.745 260.336 265.407 269.642 265.407 269.642C265.407 269.642 247.851 251.767 253.82 237.692C256.873 230.493 257.952 222.666 258.464 214.859Z" fill="#343A40"/>
<path d="M188.03 498.185H430.937C429.313 479.585 428.252 408.485 428.252 403.805C428.252 383.166 411.428 360.642 411.428 360.642L405.406 357.3L355.116 341.55L342.102 324.58C340.739 322.797 338.983 321.357 336.972 320.371C334.961 319.385 332.749 318.881 330.511 318.899L289.399 319.208C285.782 319.236 282.305 320.619 279.65 323.087L254.192 346.794L216.853 364.693L216.79 364.629L216.4 364.921L210.858 368.927L207.294 371.512C207.294 371.512 197.943 382.774 190.47 416.551C189.346 421.631 188.556 487.396 188.03 498.185Z" fill="#755664"/>
<path d="M487.159 489.246C486.574 489.783 485.983 490.313 485.391 490.843C483.152 492.841 480.882 494.805 478.579 496.736C475.1 499.647 471.549 502.471 467.926 505.208H140.928C134.269 500.19 127.856 494.869 121.689 489.246H487.159Z" fill="#ADB5BD"/>
<path d="M367.297 493.077H247.091L249.635 480.947H364.752L367.297 493.077Z" fill="#343A40"/>
<path d="M476.048 440.724H444.769C444.063 440.722 443.365 440.875 442.725 441.173C442.084 441.471 441.516 441.906 441.061 442.448C440.625 442.363 440.182 442.321 439.738 442.32C438.763 442.319 437.798 442.511 436.897 442.885C435.996 443.259 435.177 443.807 434.487 444.499C433.798 445.19 433.251 446.012 432.877 446.916C432.504 447.82 432.312 448.789 432.312 449.768C432.312 450.746 432.504 451.715 432.877 452.619C433.251 453.523 433.798 454.345 434.487 455.036C435.177 455.728 435.996 456.277 436.897 456.65C437.798 457.024 438.763 457.216 439.738 457.215C440.858 457.215 441.964 456.957 442.969 456.462L443.491 462.897L445.564 488.334C445.663 488.651 445.795 488.957 445.958 489.246C446.377 490.019 446.996 490.664 447.749 491.113C448.503 491.563 449.363 491.8 450.239 491.8H470.578C471.455 491.799 472.316 491.562 473.07 491.112C473.824 490.663 474.444 490.019 474.865 489.246C475.024 488.956 475.154 488.65 475.253 488.334L480.723 447.077C480.948 446.342 480.998 445.565 480.869 444.808C480.741 444.051 480.437 443.334 479.982 442.716C479.527 442.098 478.934 441.596 478.251 441.25C477.568 440.904 476.813 440.724 476.048 440.724ZM439.738 455.089C438.333 455.088 436.987 454.526 435.994 453.528C435.001 452.531 434.443 451.178 434.443 449.768C434.443 448.357 435.001 447.005 435.994 446.007C436.987 445.009 438.333 444.448 439.738 444.446C439.834 444.446 439.923 444.472 440.018 444.478C439.809 445.335 439.835 446.233 440.094 447.077L442.333 454.38C441.545 454.84 440.65 455.085 439.738 455.089Z" fill="#212529"/>
<path d="M405.4 305.735H207.397C205.696 305.738 204.065 306.418 202.863 307.625C201.66 308.833 200.983 310.47 200.98 312.177V446.304C200.982 448.012 201.658 449.65 202.861 450.857C204.065 452.065 205.696 452.744 207.397 452.746H405.4C407.102 452.744 408.733 452.065 409.936 450.857C411.139 449.65 411.816 448.012 411.817 446.304V312.177C411.815 310.47 411.138 308.833 409.935 307.625C408.732 306.418 407.101 305.738 405.4 305.735Z" fill="#212529"/>
<path d="M328.697 413.206H282.377C281.721 413.207 281.093 413.47 280.63 413.935C280.168 414.401 279.908 415.032 279.909 415.69V489.144H331.171V415.69C331.171 415.364 331.108 415.041 330.983 414.739C330.859 414.438 330.677 414.164 330.447 413.934C330.217 413.703 329.944 413.52 329.644 413.395C329.344 413.27 329.022 413.206 328.697 413.206ZM305.693 454.942C304.244 454.935 302.857 454.355 301.833 453.327C300.808 452.298 300.23 450.906 300.223 449.452V440.979C300.225 439.524 300.802 438.129 301.827 437.101C302.853 436.072 304.243 435.495 305.693 435.495C307.142 435.495 308.533 436.072 309.558 437.101C310.584 438.129 311.161 439.524 311.162 440.979V449.452C311.156 450.906 310.577 452.298 309.553 453.327C308.529 454.355 307.141 454.936 305.693 454.942Z" fill="#343A40"/>
<path d="M279.75 486.795V493.882C279.751 494.249 279.896 494.601 280.155 494.86C280.414 495.12 280.764 495.266 281.13 495.267H329.95C330.316 495.265 330.666 495.119 330.924 494.859C331.182 494.6 331.328 494.248 331.33 493.882V486.795H279.75Z" fill="#212529"/>
<path d="M401.19 444.902C402.916 444.902 404.315 443.497 404.315 441.764C404.315 440.031 402.916 438.626 401.19 438.626C399.463 438.626 398.064 440.031 398.064 441.764C398.064 443.497 399.463 444.902 401.19 444.902Z" fill="#343A40"/>
<path d="M232.393 437.212C232.249 437.212 232.107 437.241 231.974 437.296C231.841 437.351 231.721 437.432 231.619 437.534C231.517 437.636 231.437 437.757 231.382 437.89C231.327 438.023 231.299 438.166 231.299 438.31V443.961C231.299 444.252 231.415 444.53 231.62 444.736C231.825 444.941 232.103 445.056 232.393 445.056C232.682 445.056 232.96 444.941 233.165 444.736C233.37 444.53 233.486 444.252 233.486 443.961V438.31C233.486 438.166 233.458 438.023 233.403 437.89C233.348 437.757 233.268 437.636 233.166 437.534C233.064 437.432 232.944 437.351 232.811 437.296C232.678 437.241 232.536 437.212 232.393 437.212Z" fill="#343A40"/>
<path d="M238.333 437.212C238.189 437.212 238.047 437.241 237.914 437.296C237.782 437.351 237.661 437.432 237.559 437.534C237.458 437.636 237.377 437.757 237.322 437.89C237.267 438.023 237.239 438.166 237.239 438.31V443.961C237.239 444.252 237.354 444.531 237.559 444.737C237.764 444.943 238.043 445.059 238.333 445.059C238.623 445.059 238.901 444.943 239.106 444.737C239.312 444.531 239.427 444.252 239.427 443.961V438.31C239.427 438.166 239.399 438.023 239.344 437.89C239.289 437.757 239.208 437.636 239.106 437.534C239.005 437.432 238.884 437.351 238.752 437.296C238.619 437.241 238.477 437.212 238.333 437.212Z" fill="#343A40"/>
<path d="M244.273 437.212C244.13 437.212 243.987 437.241 243.855 437.296C243.722 437.351 243.601 437.432 243.5 437.534C243.398 437.636 243.318 437.757 243.263 437.89C243.208 438.023 243.179 438.166 243.179 438.31V443.961C243.18 444.252 243.296 444.53 243.501 444.736C243.706 444.941 243.984 445.056 244.273 445.056C244.563 445.056 244.841 444.941 245.046 444.736C245.251 444.53 245.366 444.252 245.367 443.961V438.31C245.367 438.166 245.339 438.023 245.284 437.89C245.229 437.757 245.148 437.636 245.047 437.534C244.945 437.432 244.825 437.351 244.692 437.296C244.559 437.241 244.417 437.212 244.273 437.212Z" fill="#343A40"/>
<path d="M250.214 437.212C250.07 437.212 249.928 437.241 249.795 437.296C249.662 437.351 249.542 437.432 249.44 437.534C249.338 437.636 249.258 437.757 249.203 437.89C249.148 438.023 249.12 438.166 249.12 438.31V443.961C249.12 444.252 249.236 444.53 249.441 444.736C249.646 444.941 249.924 445.056 250.214 445.056C250.503 445.056 250.781 444.941 250.986 444.736C251.191 444.53 251.307 444.252 251.307 443.961V438.31C251.307 438.166 251.279 438.023 251.224 437.89C251.169 437.757 251.089 437.636 250.987 437.534C250.885 437.432 250.765 437.351 250.632 437.296C250.499 437.241 250.357 437.212 250.214 437.212Z" fill="#343A40"/>
<path d="M254.953 489.885C264.086 489.885 271.489 482.453 271.489 473.285C271.489 464.117 264.086 456.685 254.953 456.685C245.82 456.685 238.417 464.117 238.417 473.285C238.417 482.453 245.82 489.885 254.953 489.885Z" fill="#F1D7BB"/>
<path d="M370.477 493.077C379.609 493.077 387.013 485.645 387.013 476.477C387.013 467.31 379.609 459.878 370.477 459.878C361.344 459.878 353.94 467.31 353.94 476.477C353.94 485.645 361.344 493.077 370.477 493.077Z" fill="#F1D7BB"/>
<path d="M541.161 276.112C539.527 273.399 537.59 270.503 534.558 269.617C531.046 268.591 527.439 270.629 524.379 272.64C515.228 278.654 506.415 285.172 497.981 292.164L497.991 292.269C504.557 291.815 510.006 309.341 516.572 308.886C521.316 308.558 527.34 290.204 531.532 287.951C533.123 287.096 534.674 285.954 536.476 285.874C538.716 285.776 540.669 287.346 542.204 288.986C551.282 298.69 553.909 313.53 564.094 322.056C557.671 306.157 550.003 290.794 541.161 276.112Z" fill="#212529"/>
<path d="M558.634 299.683C563.423 308.366 568.503 316.876 573.873 325.215V325.221C573.841 325.515 573.796 325.808 573.752 326.102C573.103 325.106 572.461 324.106 571.825 323.101C567.004 315.51 562.423 307.774 558.081 299.893C556.02 296.146 554.01 292.368 552.051 288.561C550.538 285.611 549.056 282.645 547.606 279.661C547.192 278.805 546.792 277.95 546.391 277.088C545.45 275.07 544.521 273.04 543.529 271.048C542.397 268.775 541.017 266.4 538.937 264.874C537.991 264.151 536.859 263.712 535.674 263.61C534.004 263.62 532.37 264.091 530.948 264.97C520.19 270.647 510.147 277.598 501.037 285.675C491.915 293.72 483.762 302.807 476.741 312.752C476.525 313.058 476.016 312.765 476.233 312.452C477.091 311.239 477.956 310.045 478.847 308.857C489.882 294.126 503.413 281.458 518.82 271.431C521.408 269.746 524.048 268.139 526.738 266.611C528.093 265.838 529.454 265.079 530.84 264.363C532.167 263.582 533.656 263.119 535.191 263.01C540.47 262.927 543.204 268.928 545.081 272.963C545.666 274.234 546.261 275.502 546.868 276.769C549.151 281.557 551.523 286.307 553.985 291.019C555.498 293.924 557.048 296.812 558.634 299.683Z" fill="#212529"/>
<path d="M500.518 282.711C500.211 282.368 499.906 282.025 499.598 281.682C497.164 278.98 494.553 276.309 491.211 274.76C489.617 273.998 487.878 273.593 486.113 273.574C484.291 273.624 482.496 274.017 480.819 274.733C480.022 275.052 479.243 275.415 478.476 275.801C477.598 276.244 476.737 276.717 475.88 277.193C474.27 278.087 472.682 279.021 471.114 279.993C467.994 281.929 464.973 284.012 462.049 286.242C460.533 287.399 459.048 288.594 457.595 289.826C456.244 290.972 454.919 292.147 453.622 293.354C453.345 293.611 452.931 293.195 453.208 292.938C453.55 292.619 453.896 292.301 454.242 291.987C455.218 291.101 456.211 290.232 457.218 289.379C459.056 287.823 460.942 286.326 462.875 284.889C465.881 282.654 468.991 280.57 472.204 278.638C473.809 277.674 475.437 276.75 477.087 275.866C477.585 275.599 478.089 275.339 478.599 275.091C479.755 274.506 480.957 274.015 482.193 273.623C483.942 273.055 485.794 272.872 487.621 273.088C489.384 273.345 491.084 273.935 492.629 274.827C495.91 276.668 498.455 279.515 500.932 282.293C501.182 282.576 500.77 282.993 500.518 282.711Z" fill="#212529"/>
<path d="M476.505 295.711C475.671 295.752 474.847 295.515 474.161 295.037C472.345 293.656 472.393 290.339 474.307 284.896C474.827 283.421 475.644 282.069 476.706 280.924C477.767 279.778 479.052 278.863 480.48 278.235C481.817 277.635 483.265 277.32 484.73 277.312C486.195 277.303 487.646 277.6 488.991 278.184C489.225 278.287 489.457 278.397 489.685 278.514C491.241 279.389 492.7 280.428 494.037 281.614C495.173 282.604 496.385 283.502 497.662 284.302L498.088 284.552L497.684 284.838C487.381 292.119 480.396 295.711 476.505 295.711Z" fill="#212529"/>
<path d="M516.123 252.38C512.735 252.379 509.453 251.199 506.835 249.039C504.218 246.88 502.428 243.876 501.772 240.539C498.939 241.115 496.34 242.52 494.302 244.578C492.264 246.635 490.879 249.252 490.321 252.099C489.763 254.945 490.058 257.894 491.168 260.573C492.279 263.252 494.154 265.54 496.559 267.15C498.963 268.759 501.789 269.618 504.679 269.617C507.569 269.616 510.395 268.756 512.798 267.144C515.202 265.533 517.076 263.244 518.184 260.564C519.293 257.885 519.586 254.936 519.026 252.089C518.071 252.283 517.098 252.38 516.123 252.38Z" fill="#212529"/>
<path opacity="0.74" d="M124.546 276.002C136.602 276.002 146.375 266.192 146.375 254.089C146.375 241.987 136.602 232.176 124.546 232.176C112.49 232.176 102.716 241.987 102.716 254.089C102.716 266.192 112.49 276.002 124.546 276.002Z" fill="#212529"/>
<path opacity="0.74" d="M146.375 276.002C158.432 276.002 168.205 266.192 168.205 254.089C168.205 241.987 158.432 232.176 146.375 232.176C134.319 232.176 124.546 241.987 124.546 254.089C124.546 266.192 134.319 276.002 146.375 276.002Z" fill="#755664"/>
<path opacity="0.74" d="M135.645 258.538C147.701 258.538 157.475 248.727 157.475 236.624C157.475 224.522 147.701 214.711 135.645 214.711C123.589 214.711 113.816 224.522 113.816 236.624C113.816 248.727 123.589 258.538 135.645 258.538Z" fill="#9F96A6"/>
<path d="M192.727 230.345L136.655 248.028L137.037 249.246L193.108 231.563L192.727 230.345Z" fill="#212529"/>
<path d="M193.084 233.303C194.489 233.303 195.628 232.16 195.628 230.75C195.628 229.339 194.489 228.196 193.084 228.196C191.679 228.196 190.54 229.339 190.54 230.75C190.54 232.16 191.679 233.303 193.084 233.303Z" fill="#212529"/>
<path d="M557.095 345.664C560.822 348.301 564.403 350.989 568.499 353.019C568.422 353.332 568.34 353.651 568.263 353.964C567.761 353.728 567.271 353.479 566.781 353.224C562.628 351.04 559.054 348.071 555.155 345.492C553.222 344.151 551.111 343.089 548.884 342.338C546.562 341.638 544.136 341.352 541.716 341.495C531.623 341.993 522.973 348.039 513.592 351.085C509 352.579 504.115 353.377 499.326 352.438C494.537 351.5 490.282 348.946 486.052 346.635C481.88 344.349 477.333 342.051 472.461 342.051C468.492 342.057 464.32 343.653 462.196 347.177C462.13 347.283 462.026 347.358 461.905 347.387C461.785 347.417 461.658 347.398 461.551 347.335C461.444 347.272 461.366 347.169 461.333 347.049C461.301 346.929 461.316 346.801 461.375 346.692C461.85 345.889 462.435 345.156 463.112 344.515C465.885 341.878 469.961 340.838 473.708 341.144C478.554 341.54 482.974 343.838 487.166 346.15C491.611 348.601 496.165 351.238 501.304 351.774C506.379 352.311 511.404 350.976 516.11 349.182C525.224 345.703 534.218 339.905 544.356 340.55C549.138 340.857 553.234 342.938 557.095 345.664Z" fill="#212529"/>
<path d="M158.164 161.017V162.313C157.736 162.228 157.302 162.185 156.866 162.185H150.214V176.525C150.212 178.648 149.372 180.684 147.876 182.185C146.381 183.686 144.353 184.53 142.238 184.531H132.405V186.74C132.405 187.626 132.58 188.502 132.92 189.319H131.559C131.275 188.49 131.131 187.618 131.133 186.74V184.531H125.727V183.254H131.133V168.914C131.135 166.791 131.975 164.756 133.471 163.255C134.966 161.753 136.994 160.909 139.109 160.908H148.942V158.674H150.214V160.908H156.866C157.301 160.909 157.735 160.945 158.164 161.017Z" fill="#755664"/>
<path d="M142.238 150.693H124.481C122.366 150.694 120.338 151.538 118.842 153.039C117.347 154.54 116.506 156.576 116.505 158.699V176.525C116.506 178.648 117.347 180.684 118.842 182.185C120.338 183.686 122.366 184.53 124.481 184.531H142.238C144.353 184.53 146.381 183.686 147.876 182.185C149.372 180.684 150.212 178.648 150.214 176.525V158.674C150.206 156.555 149.362 154.526 147.868 153.03C146.373 151.534 144.349 150.694 142.238 150.693ZM148.942 176.525C148.939 178.309 148.232 180.019 146.976 181.281C145.719 182.542 144.015 183.252 142.238 183.254H124.481C122.703 183.252 121 182.542 119.743 181.281C118.487 180.019 117.779 178.309 117.777 176.525V158.699C117.779 156.915 118.487 155.205 119.743 153.944C121 152.682 122.703 151.972 124.481 151.97H142.238C144.011 151.972 145.711 152.678 146.967 153.934C148.223 155.19 148.933 156.894 148.942 158.674V176.525Z" fill="#212529"/>
<path d="M131.133 183.254V184.531H132.405V183.254H131.133ZM131.133 183.254V184.531H132.405V183.254H131.133ZM158.164 161.017C157.735 160.945 157.301 160.909 156.866 160.908H139.109C136.994 160.909 134.966 161.753 133.471 163.255C131.975 164.756 131.135 166.791 131.133 168.914V186.74C131.131 187.618 131.275 188.49 131.559 189.319C132.096 190.902 133.113 192.276 134.467 193.249C135.82 194.222 137.444 194.746 139.109 194.746H156.866C158.981 194.745 161.009 193.901 162.504 192.4C164 190.899 164.841 188.863 164.842 186.74V168.914C164.841 167.017 164.17 165.182 162.947 163.735C161.724 162.289 160.029 161.325 158.164 161.017ZM163.57 186.74C163.567 188.524 162.86 190.234 161.604 191.496C160.347 192.757 158.643 193.467 156.866 193.469H139.109C137.332 193.467 135.628 192.757 134.372 191.496C133.115 190.234 132.408 188.524 132.405 186.74V168.914C132.408 167.13 133.115 165.42 134.371 164.159C135.628 162.897 137.332 162.188 139.109 162.185H156.866C158.644 162.186 160.349 162.895 161.606 164.157C162.863 165.419 163.569 167.13 163.57 168.914V186.74ZM131.133 183.254V184.531H132.405V183.254H131.133Z" fill="#212529"/>
<path d="M118.572 349.693H43.1413C42.6162 349.693 42.1126 349.902 41.7408 350.274C41.3689 350.647 41.159 351.151 41.157 351.678V356.167C43.6456 365.735 46.6585 375.158 50.182 384.393H118.572C118.832 384.393 119.089 384.342 119.329 384.242C119.569 384.143 119.788 383.996 119.971 383.812C120.155 383.628 120.301 383.409 120.4 383.168C120.499 382.927 120.55 382.668 120.55 382.407V351.678C120.55 351.152 120.341 350.647 119.97 350.275C119.599 349.903 119.097 349.693 118.572 349.693Z" fill="#755664"/>
<path d="M111.385 394.359H54.2079C54.8884 395.962 55.5817 397.552 56.3004 399.135H111.385C114.489 399.18 114.457 394.315 111.385 394.359Z" fill="#E9ECEF"/>
<path d="M111.385 405.302H59.1688C59.9319 406.905 60.7163 408.497 61.522 410.078H111.385C114.489 410.123 114.457 405.264 111.385 405.302Z" fill="#E9ECEF"/>
<path d="M111.385 416.252H64.7339C65.5861 417.854 66.4638 419.444 67.3542 421.028H111.385C114.489 421.072 114.457 416.207 111.385 416.252Z" fill="#E9ECEF"/>
<path d="M502.437 121.946H502.075C503.203 121.947 504.315 122.211 505.324 122.718H503.675C501.898 122.72 500.194 123.429 498.937 124.691C497.681 125.952 496.974 127.663 496.972 129.447V147.273C496.974 149.057 497.681 150.768 498.937 152.029C500.194 153.291 501.898 154 503.675 154.002H504.726C503.882 154.335 502.982 154.506 502.075 154.508H502.437C504.383 154.505 506.248 153.728 507.624 152.347C509 150.966 509.774 149.093 509.776 147.14V129.314C509.774 127.361 509 125.488 507.624 124.107C506.248 122.726 504.383 121.949 502.437 121.946Z" fill="#212529"/>
<path opacity="0.21" d="M502.437 121.946H502.075C503.203 121.947 504.315 122.211 505.324 122.718H503.675C501.898 122.72 500.194 123.429 498.937 124.691C497.681 125.952 496.974 127.663 496.972 129.447V147.273C496.974 149.057 497.681 150.768 498.937 152.029C500.194 153.291 501.898 154 503.675 154.002H504.726C503.882 154.335 502.982 154.506 502.075 154.508H502.437C504.383 154.505 506.248 153.728 507.624 152.347C509 150.966 509.774 149.093 509.776 147.14V129.314C509.774 127.361 509 125.488 507.624 124.107C506.248 122.726 504.383 121.949 502.437 121.946Z" fill="#212529"/>
<path d="M455.372 121.946H455.01C456.138 121.947 457.25 122.211 458.26 122.718H456.61C454.833 122.72 453.129 123.429 451.873 124.691C450.616 125.952 449.909 127.663 449.907 129.447V147.273C449.909 149.057 450.616 150.768 451.873 152.029C453.129 153.291 454.833 154 456.61 154.002H457.662C456.817 154.335 455.917 154.506 455.01 154.508H455.372C457.318 154.505 459.184 153.728 460.56 152.347C461.935 150.966 462.709 149.093 462.712 147.14V129.314C462.709 127.361 461.935 125.488 460.56 124.107C459.184 122.726 457.318 121.949 455.372 121.946Z" fill="#755664"/>
<path opacity="0.21" d="M455.372 121.946H455.01C456.138 121.947 457.25 122.211 458.26 122.718H456.61C454.833 122.72 453.129 123.429 451.873 124.691C450.616 125.952 449.909 127.663 449.907 129.447V147.273C449.909 149.057 450.616 150.768 451.873 152.029C453.129 153.291 454.833 154 456.61 154.002H457.662C456.817 154.335 455.917 154.506 455.01 154.508H455.372C457.318 154.505 459.184 153.728 460.56 152.347C461.935 150.966 462.709 149.093 462.712 147.14V129.314C462.709 127.361 461.935 125.488 460.56 124.107C459.184 122.726 457.318 121.949 455.372 121.946Z" fill="#212529"/>
<path d="M456.681 154.058C454.904 154.056 453.2 153.346 451.944 152.085C450.687 150.823 449.98 149.113 449.978 147.329V129.502C449.98 127.718 450.687 126.008 451.944 124.746C453.2 123.485 454.904 122.775 456.681 122.773H458.331C457.322 122.267 456.209 122.003 455.081 122.002H437.323C435.377 122.004 433.512 122.781 432.136 124.162C430.76 125.543 429.986 127.416 429.984 129.369V147.196C429.986 149.149 430.76 151.022 432.136 152.403C433.512 153.784 435.377 154.561 437.323 154.563H455.081C455.989 154.562 456.888 154.39 457.733 154.058L456.681 154.058Z" fill="#755664"/>
<path d="M503.746 154.058C501.969 154.056 500.265 153.346 499.008 152.085C497.752 150.823 497.045 149.113 497.043 147.329V129.502C497.045 127.718 497.752 126.008 499.008 124.746C500.265 123.485 501.969 122.775 503.746 122.773H505.395C504.386 122.267 503.274 122.003 502.146 122.002H484.388C482.442 122.004 480.576 122.781 479.201 124.162C477.825 125.543 477.051 127.416 477.049 129.369V147.196C477.051 149.149 477.825 151.022 479.201 152.403C480.576 153.784 482.442 154.561 484.388 154.563H502.146C503.053 154.562 503.953 154.39 504.797 154.058L503.746 154.058Z" fill="#212529"/>
<path d="M524.716 126.438C531.233 135.438 537.195 144.831 542.568 154.562H531.451C529.505 154.559 527.64 153.782 526.264 152.401C524.888 151.02 524.114 149.147 524.111 147.194V129.369C524.111 128.361 524.316 127.363 524.716 126.438Z" fill="#9F96A6"/>
<path d="M502.423 163.915L496.203 154.562L491.656 147.724C491.39 147.325 491.018 147.009 490.581 146.814C490.144 146.618 489.661 146.551 489.188 146.62C488.715 146.688 488.27 146.891 487.907 147.202C487.543 147.514 487.275 147.923 487.134 148.382L485.219 154.562L481.365 166.98C481.213 167.475 481.214 168.004 481.37 168.498C481.525 168.992 481.827 169.426 482.235 169.743C482.643 170.06 483.137 170.245 483.652 170.273C484.167 170.3 484.678 170.169 485.118 169.898L486.485 169.049C486.76 168.878 487.074 168.781 487.397 168.767C487.72 168.752 488.041 168.821 488.331 168.966C488.62 169.111 488.867 169.328 489.05 169.596C489.232 169.864 489.343 170.175 489.372 170.498L490.625 184.225C490.684 184.855 490.975 185.441 491.44 185.868C491.906 186.296 492.513 186.534 493.144 186.536C493.22 186.536 493.297 186.529 493.379 186.523L495.3 186.351C495.631 186.32 495.954 186.225 496.248 186.07C496.543 185.914 496.804 185.702 497.016 185.445C497.229 185.188 497.389 184.892 497.488 184.573C497.586 184.254 497.621 183.919 497.59 183.586L496.299 169.412C496.268 169.08 496.325 168.744 496.465 168.441C496.604 168.137 496.821 167.876 497.093 167.683C497.365 167.49 497.683 167.372 498.015 167.342C498.346 167.312 498.68 167.37 498.983 167.51L499.262 167.638C499.764 167.869 500.326 167.93 500.865 167.811C501.404 167.692 501.889 167.399 502.247 166.978C502.605 166.557 502.816 166.029 502.848 165.476C502.879 164.924 502.73 164.375 502.423 163.915Z" fill="#ADB5BD"/>
</g>
<defs>
<clipPath id="clip0_6_160">
<rect width="574" height="560" fill="white"/>
</clipPath>
</defs>
</svg>
