<svg width="49" height="48" viewBox="0 0 49 48" fill="none" xmlns="http://www.w3.org/2000/svg">
<g id="icons8-dribble 1">
<path id="Vector" d="M7.5 13.26C9.26 10.5 11.66 8.2 14.52 6.6C18.66 7.96 23.16 10.6 26.62 14.54C20.82 16.66 14.02 16.68 7.5 13.26ZM13.36 40.7C7.94 37.12 4.36 30.98 4.36 24C4.36 21.48 4.82 19.06 5.7 16.84C9.92 19.04 14.24 20.02 18.42 20.02C22.18 20.02 25.8 19.24 29.1 17.88C29.84 19.08 30.48 20.4 31 21.8C29.1 22.48 27.22 23.38 25.44 24.48C19.3 28.32 14.98 34.12 13.36 40.7ZM19.92 4.5C21.34 4.18 22.84 4 24.36 4C28.92 4 33.1 5.52 36.46 8.08C34.76 9.92 32.7 11.54 30.4 12.82C27.44 9.14 23.68 6.38 19.92 4.5ZM32.38 27.78C33.3 37.1 29.18 42.84 28.68 43.52C28.66 43.52 28.66 43.54 28.66 43.54C27.28 43.84 25.84 44 24.36 44C21.76 44 19.3 43.5 17.02 42.6C18.2 36.64 22 31.32 27.54 27.88C29 26.96 30.52 26.22 32.08 25.66C32.2 26.34 32.3 27.06 32.38 27.78ZM44.34 24.68C44.1 31.76 40.2 37.92 34.44 41.28C35.76 38.08 36.96 33.36 36.36 27.38C36.26 26.42 36.12 25.48 35.94 24.58C38.82 24.02 41.68 24.04 44.34 24.68ZM34.88 20.72C34.28 19.08 33.56 17.54 32.7 16.12C35.24 14.66 37.52 12.86 39.38 10.8C41.76 13.5 43.42 16.84 44.06 20.54C41.1 20.02 37.98 20.08 34.88 20.72Z" fill="#755664"/>
</g>
</svg>
