<svg width="38" height="39" viewBox="0 0 38 39" fill="none" xmlns="http://www.w3.org/2000/svg">
<g id="info">
<mask id="mask0_149_526" style="mask-type:alpha" maskUnits="userSpaceOnUse" x="0" y="0" width="38" height="39">
<rect id="Bounding box" y="0.5" width="38" height="38" fill="#D9D9D9"/>
</mask>
<g mask="url(#mask0_149_526)">
<path id="info_2" d="M17.8127 27.0208H20.1876V17.9167H17.8127V27.0208ZM19.0001 15.2068C19.3625 15.2068 19.6662 15.0842 19.9113 14.8391C20.1564 14.594 20.2789 14.2903 20.2789 13.9279C20.2789 13.5656 20.1564 13.2619 19.9113 13.0168C19.6662 12.7717 19.3625 12.6491 19.0001 12.6491C18.6378 12.6491 18.3341 12.7717 18.089 13.0168C17.8439 13.2619 17.7213 13.5656 17.7213 13.9279C17.7213 14.2903 17.8439 14.594 18.089 14.8391C18.3341 15.0842 18.6378 15.2068 19.0001 15.2068ZM19.0028 34.5416C16.9224 34.5416 14.9669 34.1469 13.1364 33.3573C11.3058 32.5677 9.71346 31.4962 8.35937 30.1427C7.00525 28.7892 5.93324 27.1976 5.14334 25.3678C4.35345 23.5381 3.9585 21.583 3.9585 19.5027C3.9585 17.4223 4.35327 15.4668 5.14283 13.6362C5.93239 11.8057 7.00391 10.2133 8.35739 8.85925C9.71091 7.50513 11.3025 6.43312 13.1323 5.64322C14.962 4.85333 16.9171 4.45837 18.9975 4.45837C21.0779 4.45837 23.0333 4.85315 24.8639 5.64271C26.6945 6.43226 28.2868 7.50378 29.6409 8.85727C30.995 10.2108 32.067 11.8024 32.8569 13.6322C33.6468 15.4619 34.0418 17.417 34.0418 19.4974C34.0418 21.5777 33.647 23.5332 32.8574 25.3638C32.0679 27.1943 30.9963 28.7867 29.6429 30.1408C28.2893 31.4949 26.6977 32.5669 24.868 33.3568C23.0382 34.1467 21.0832 34.5416 19.0028 34.5416ZM19.0001 32.1667C22.5362 32.1667 25.5314 30.9396 27.9855 28.4854C30.4397 26.0313 31.6668 23.0361 31.6668 19.5C31.6668 15.9639 30.4397 12.9688 27.9855 10.5146C25.5314 8.06042 22.5362 6.83334 19.0001 6.83334C15.464 6.83334 12.4689 8.06042 10.0147 10.5146C7.56054 12.9688 6.33346 15.9639 6.33346 19.5C6.33346 23.0361 7.56054 26.0313 10.0147 28.4854C12.4689 30.9396 15.464 32.1667 19.0001 32.1667Z" fill="#F8F9FA"/>
</g>
</g>
</svg>
