<svg width="49" height="48" viewBox="0 0 49 48" fill="none" xmlns="http://www.w3.org/2000/svg">
<g id="icons8-linked-in 1">
<path id="Vector" d="M38.5 6H10.5C8.29 6 6.5 7.79 6.5 10V38C6.5 40.21 8.29 42 10.5 42H38.5C40.71 42 42.5 40.21 42.5 38V10C42.5 7.79 40.71 6 38.5 6ZM18.5 34H13.454V20H18.5V34ZM15.888 17.434C14.346 17.434 13.316 16.406 13.316 15.034C13.316 13.662 14.344 12.634 16.058 12.634C17.6 12.634 18.63 13.662 18.63 15.034C18.63 16.406 17.602 17.434 15.888 17.434ZM36.5 34H31.616V26.348C31.616 24.232 30.314 23.744 29.826 23.744C29.338 23.744 27.71 24.07 27.71 26.348C27.71 26.674 27.71 34 27.71 34H22.664V20H27.71V21.954C28.36 20.814 29.662 20 32.104 20C34.546 20 36.5 21.954 36.5 26.348V34Z" fill="#755664"/>
</g>
</svg>
