<svg width="24" height="25" viewBox="0 0 24 25" fill="none" xmlns="http://www.w3.org/2000/svg">
<g id="mark_as_unread">
<mask id="mask0_101_185" style="mask-type:alpha" maskUnits="userSpaceOnUse" x="0" y="0" width="24" height="25">
<rect id="Bounding box" y="0.5" width="24" height="24" fill="#D9D9D9"/>
</mask>
<g mask="url(#mask0_101_185)">
<path id="mark_as_unread_2" d="M4 17.5C3.45 17.5 2.97917 17.3042 2.5875 16.9125C2.19583 16.5208 2 16.05 2 15.5V7.65C2 7.4 2.07083 7.15417 2.2125 6.9125C2.35417 6.67083 2.55 6.48333 2.8 6.35L10.5 2.5L18.05 6.35C18.25 6.45 18.4208 6.60833 18.5625 6.825C18.7042 7.04167 18.8 7.26667 18.85 7.5H15.925L10.5 4.75L4 7.975V17.5ZM7 21.5C6.45 21.5 5.97917 21.3042 5.5875 20.9125C5.19583 20.5208 5 20.05 5 19.5V10.5C5 9.95 5.19583 9.47917 5.5875 9.0875C5.97917 8.69583 6.45 8.5 7 8.5H20C20.55 8.5 21.0208 8.69583 21.4125 9.0875C21.8042 9.47917 22 9.95 22 10.5V19.5C22 20.05 21.8042 20.5208 21.4125 20.9125C21.0208 21.3042 20.55 21.5 20 21.5H7ZM13.5 15.85L7 12.5V19.5H20V12.5L13.5 15.85ZM13.5 13.85L20 10.5H7L13.5 13.85Z" fill="#755664"/>
</g>
</g>
</svg>
