<svg width="24" height="25" viewBox="0 0 24 25" fill="none" xmlns="http://www.w3.org/2000/svg">
<g id="point_scan">
<mask id="mask0_101_203" style="mask-type:alpha" maskUnits="userSpaceOnUse" x="0" y="0" width="24" height="25">
<rect id="Bounding box" y="0.5" width="24" height="24" fill="#D9D9D9"/>
</mask>
<g mask="url(#mask0_101_203)">
<path id="point_scan_2" d="M12 14.5C11.45 14.5 10.9792 14.3042 10.5875 13.9125C10.1958 13.5208 10 13.05 10 12.5C10 11.95 10.1958 11.4792 10.5875 11.0875C10.9792 10.6958 11.45 10.5 12 10.5C12.55 10.5 13.0208 10.6958 13.4125 11.0875C13.8042 11.4792 14 11.95 14 12.5C14 13.05 13.8042 13.5208 13.4125 13.9125C13.0208 14.3042 12.55 14.5 12 14.5ZM11 8.5V3.5H13V8.5H11ZM11 21.5V16.5H13V21.5H11ZM16 13.5V11.5H21V13.5H16ZM3 13.5V11.5H8V13.5H3Z" fill="#755664"/>
</g>
</g>
</svg>
