<svg width="24" height="25" viewBox="0 0 24 25" fill="none" xmlns="http://www.w3.org/2000/svg">
<g id="sell">
<mask id="mask0_46_85" style="mask-type:alpha" maskUnits="userSpaceOnUse" x="0" y="0" width="24" height="25">
<rect id="Bounding box" y="0.5" width="24" height="24" fill="#D9D9D9"/>
</mask>
<g mask="url(#mask0_46_85)">
<path id="sell_2" d="M14.25 21.9C13.8667 22.2833 13.3917 22.475 12.825 22.475C12.2583 22.475 11.7833 22.2833 11.4 21.9L2.6 13.1C2.41667 12.9167 2.27083 12.7 2.1625 12.45C2.05417 12.2 2 11.9333 2 11.65V4.5C2 3.95 2.19583 3.47917 2.5875 3.0875C2.97917 2.69583 3.45 2.5 4 2.5H11.15C11.4333 2.5 11.7 2.55417 11.95 2.6625C12.2 2.77083 12.4167 2.91667 12.6 3.1L21.4 11.925C21.7833 12.3083 21.975 12.7792 21.975 13.3375C21.975 13.8958 21.7833 14.3667 21.4 14.75L14.25 21.9ZM12.825 20.5L19.975 13.35L11.15 4.5H4V11.65L12.825 20.5ZM6.5 8.5C6.91667 8.5 7.27083 8.35417 7.5625 8.0625C7.85417 7.77083 8 7.41667 8 7C8 6.58333 7.85417 6.22917 7.5625 5.9375C7.27083 5.64583 6.91667 5.5 6.5 5.5C6.08333 5.5 5.72917 5.64583 5.4375 5.9375C5.14583 6.22917 5 6.58333 5 7C5 7.41667 5.14583 7.77083 5.4375 8.0625C5.72917 8.35417 6.08333 8.5 6.5 8.5Z" fill="#755664"/>
</g>
</g>
</svg>
