<svg width="450" height="450" viewBox="0 0 450 450" fill="none" xmlns="http://www.w3.org/2000/svg">
<circle cx="225" cy="225" r="215.5" stroke="#755664" stroke-width="19"/>
<path d="M120 107H281V225H238L120 107Z" fill="#A07A8A"/>
<path d="M113 114L168.5 169.5L223.5 225.5L113 225V114Z" fill="#5C3F4C"/>
<path d="M169.5 170.5L220 221L223.5 225.5L113.5 225L169.5 170.5Z" fill="#A07A8A"/>
<path d="M113.271 240.458L164 291.229L215.271 342.458L113.271 342V240.458Z" fill="#664856"/>
<path d="M113.271 240.458L164 291.229L113.271 342.458L113.271 342V240.458Z" fill="#5C3F4C"/>
<path d="M337 242L286.271 291.229L235 342H337V242Z" fill="#664856"/>
<path d="M337 242L286.271 291.229L337 342V242Z" fill="#A07A8A"/>
<path d="M248 235H281V268L264.5 251.5L248 235Z" fill="#BCA5AF"/>
<path d="M330 235H291V274L310.5 254.5L330 235Z" fill="#5C3F4C"/>
<path d="M120 107H280L205.267 193L120 107Z" fill="#5C3F4C"/>
<path d="M238 225L281 107V225H238Z" fill="#BCA5AF"/>
<path d="M122 235H234.231L282 283L226 339L122 235Z" fill="#5C3F4C"/>
<path d="M235 235L285.729 284.229L226 339L235 235Z" fill="#BCA5AF"/>
<path d="M234.729 235L173 286L226 339L234.729 235Z" fill="#664856"/>
<path d="M173 235H235L173 286V235Z" fill="#A07A8A"/>
</svg>
